<svg width="271" height="200" viewBox="0 0 271 200" fill="none" xmlns="http://www.w3.org/2000/svg">
<g clip-path="url(#clip0)">
<path d="M66.2506 121.673H44.0387C42.7677 121.673 41.7373 122.699 41.7373 123.965V130.012C41.7373 131.278 42.7677 132.305 44.0387 132.305H66.2506C67.5216 132.305 68.552 131.278 68.552 130.012V123.965C68.552 122.699 67.5216 121.673 66.2506 121.673Z" fill="#4F3DFE"/>
<path d="M93.0651 121.673H70.8531C69.5821 121.673 68.5518 122.699 68.5518 123.965V130.012C68.5518 131.278 69.5821 132.305 70.8531 132.305H93.0651C94.3361 132.305 95.3664 131.278 95.3664 130.012V123.965C95.3664 122.699 94.3361 121.673 93.0651 121.673Z" fill="#4F3DFE"/>
<path opacity="0.1" d="M93.0651 121.673H70.8531C69.5821 121.673 68.5518 122.699 68.5518 123.965V130.012C68.5518 131.278 69.5821 132.305 70.8531 132.305H93.0651C94.3361 132.305 95.3664 131.278 95.3664 130.012V123.965C95.3664 122.699 94.3361 121.673 93.0651 121.673Z" fill="black"/>
<path d="M119.88 121.673H97.6681C96.3971 121.673 95.3667 122.699 95.3667 123.965V130.012C95.3667 131.278 96.3971 132.305 97.6681 132.305H119.88C121.151 132.305 122.181 131.278 122.181 130.012V123.965C122.181 122.699 121.151 121.673 119.88 121.673Z" fill="#4F3DFE"/>
<path d="M146.694 121.673H124.483C123.212 121.673 122.181 122.699 122.181 123.965V130.012C122.181 131.278 123.212 132.305 124.483 132.305H146.694C147.965 132.305 148.996 131.278 148.996 130.012V123.965C148.996 122.699 147.965 121.673 146.694 121.673Z" fill="#4F3DFE"/>
<path opacity="0.1" d="M146.694 121.673H124.483C123.212 121.673 122.181 122.699 122.181 123.965V130.012C122.181 131.278 123.212 132.305 124.483 132.305H146.694C147.965 132.305 148.996 131.278 148.996 130.012V123.965C148.996 122.699 147.965 121.673 146.694 121.673Z" fill="black"/>
<path d="M173.509 121.673H151.297C150.026 121.673 148.996 122.699 148.996 123.965V130.012C148.996 131.278 150.026 132.305 151.297 132.305H173.509C174.78 132.305 175.811 131.278 175.811 130.012V123.965C175.811 122.699 174.78 121.673 173.509 121.673Z" fill="#4F3DFE"/>
<path d="M200.324 121.673H178.112C176.841 121.673 175.811 122.699 175.811 123.965V130.012C175.811 131.278 176.841 132.305 178.112 132.305H200.324C201.595 132.305 202.625 131.278 202.625 130.012V123.965C202.625 122.699 201.595 121.673 200.324 121.673Z" fill="#4F3DFE"/>
<path opacity="0.1" d="M200.324 121.673H178.112C176.841 121.673 175.811 122.699 175.811 123.965V130.012C175.811 131.278 176.841 132.305 178.112 132.305H200.324C201.595 132.305 202.625 131.278 202.625 130.012V123.965C202.625 122.699 201.595 121.673 200.324 121.673Z" fill="black"/>
<path d="M178.112 121.673H200.324C201.595 121.673 202.625 120.647 202.625 119.381V113.334C202.625 112.068 201.595 111.041 200.324 111.041H178.112C176.841 111.041 175.811 112.068 175.811 113.334V119.381C175.811 120.647 176.841 121.673 178.112 121.673Z" fill="#4F3DFE"/>
<path d="M151.297 121.673H173.509C174.78 121.673 175.811 120.647 175.811 119.381V113.334C175.811 112.068 174.78 111.041 173.509 111.041H151.297C150.026 111.041 148.996 112.068 148.996 113.334V119.381C148.996 120.647 150.026 121.673 151.297 121.673Z" fill="#4F3DFE"/>
<path opacity="0.1" d="M151.297 121.673H173.509C174.78 121.673 175.811 120.647 175.811 119.381V113.334C175.811 112.068 174.78 111.041 173.509 111.041H151.297C150.026 111.041 148.996 112.068 148.996 113.334V119.381C148.996 120.647 150.026 121.673 151.297 121.673Z" fill="black"/>
<path d="M124.483 121.673H146.695C147.966 121.673 148.996 120.647 148.996 119.381V113.334C148.996 112.068 147.966 111.041 146.695 111.041H124.483C123.212 111.041 122.181 112.068 122.181 113.334V119.381C122.181 120.647 123.212 121.673 124.483 121.673Z" fill="#4F3DFE"/>
<path d="M97.6679 121.673H119.88C121.151 121.673 122.181 120.647 122.181 119.381V113.334C122.181 112.068 121.151 111.041 119.88 111.041H97.6679C96.3968 111.041 95.3665 112.068 95.3665 113.334V119.381C95.3665 120.647 96.3968 121.673 97.6679 121.673Z" fill="#4F3DFE"/>
<path opacity="0.1" d="M97.6679 121.673H119.88C121.151 121.673 122.181 120.647 122.181 119.381V113.334C122.181 112.068 121.151 111.041 119.88 111.041H97.6679C96.3968 111.041 95.3665 112.068 95.3665 113.334V119.381C95.3665 120.647 96.3968 121.673 97.6679 121.673Z" fill="black"/>
<path d="M70.8534 121.673H93.0653C94.3363 121.673 95.3667 120.647 95.3667 119.381V113.334C95.3667 112.068 94.3363 111.041 93.0653 111.041H70.8534C69.5824 111.041 68.552 112.068 68.552 113.334V119.381C68.552 120.647 69.5824 121.673 70.8534 121.673Z" fill="#4F3DFE"/>
<path d="M44.0385 121.673H66.2504C67.5214 121.673 68.5518 120.647 68.5518 119.381V113.334C68.5518 112.068 67.5214 111.041 66.2504 111.041H44.0385C42.7674 111.041 41.7371 112.068 41.7371 113.334V119.381C41.7371 120.647 42.7674 121.673 44.0385 121.673Z" fill="#4F3DFE"/>
<path opacity="0.1" d="M44.0385 121.673H66.2504C67.5214 121.673 68.5518 120.647 68.5518 119.381V113.334C68.5518 112.068 67.5214 111.041 66.2504 111.041H44.0385C42.7674 111.041 41.7371 112.068 41.7371 113.334V119.381C41.7371 120.647 42.7674 121.673 44.0385 121.673Z" fill="black"/>
<path d="M66.2506 100.41H44.0387C42.7677 100.41 41.7373 101.436 41.7373 102.702V108.749C41.7373 110.015 42.7677 111.041 44.0387 111.041H66.2506C67.5216 111.041 68.552 110.015 68.552 108.749V102.702C68.552 101.436 67.5216 100.41 66.2506 100.41Z" fill="#4F3DFE"/>
<path d="M93.0651 100.41H70.8531C69.5821 100.41 68.5518 101.436 68.5518 102.702V108.749C68.5518 110.015 69.5821 111.041 70.8531 111.041H93.0651C94.3361 111.041 95.3664 110.015 95.3664 108.749V102.702C95.3664 101.436 94.3361 100.41 93.0651 100.41Z" fill="#4F3DFE"/>
<path opacity="0.1" d="M93.0651 100.41H70.8531C69.5821 100.41 68.5518 101.436 68.5518 102.702V108.749C68.5518 110.015 69.5821 111.041 70.8531 111.041H93.0651C94.3361 111.041 95.3664 110.015 95.3664 108.749V102.702C95.3664 101.436 94.3361 100.41 93.0651 100.41Z" fill="black"/>
<path d="M119.88 100.41H97.6681C96.3971 100.41 95.3667 101.436 95.3667 102.702V108.749C95.3667 110.015 96.3971 111.041 97.6681 111.041H119.88C121.151 111.041 122.181 110.015 122.181 108.749V102.702C122.181 101.436 121.151 100.41 119.88 100.41Z" fill="#4F3DFE"/>
<path d="M146.694 100.41H124.483C123.212 100.41 122.181 101.436 122.181 102.702V108.749C122.181 110.015 123.212 111.041 124.483 111.041H146.694C147.965 111.041 148.996 110.015 148.996 108.749V102.702C148.996 101.436 147.965 100.41 146.694 100.41Z" fill="#4F3DFE"/>
<path opacity="0.1" d="M146.694 100.41H124.483C123.212 100.41 122.181 101.436 122.181 102.702V108.749C122.181 110.015 123.212 111.041 124.483 111.041H146.694C147.965 111.041 148.996 110.015 148.996 108.749V102.702C148.996 101.436 147.965 100.41 146.694 100.41Z" fill="black"/>
<path d="M173.509 100.41H151.297C150.026 100.41 148.996 101.436 148.996 102.702V108.749C148.996 110.015 150.026 111.041 151.297 111.041H173.509C174.78 111.041 175.811 110.015 175.811 108.749V102.702C175.811 101.436 174.78 100.41 173.509 100.41Z" fill="#4F3DFE"/>
<path d="M200.324 100.41H178.112C176.841 100.41 175.811 101.436 175.811 102.702V108.749C175.811 110.015 176.841 111.041 178.112 111.041H200.324C201.595 111.041 202.625 110.015 202.625 108.749V102.702C202.625 101.436 201.595 100.41 200.324 100.41Z" fill="#4F3DFE"/>
<path opacity="0.1" d="M200.324 100.41H178.112C176.841 100.41 175.811 101.436 175.811 102.702V108.749C175.811 110.015 176.841 111.041 178.112 111.041H200.324C201.595 111.041 202.625 110.015 202.625 108.749V102.702C202.625 101.436 201.595 100.41 200.324 100.41Z" fill="black"/>
<path d="M178.112 100.41H200.324C201.595 100.41 202.625 99.3832 202.625 98.1172V92.0702C202.625 90.8042 201.595 89.7779 200.324 89.7779H178.112C176.841 89.7779 175.811 90.8042 175.811 92.0702V98.1172C175.811 99.3832 176.841 100.41 178.112 100.41Z" fill="#4F3DFE"/>
<path d="M151.297 100.41H173.509C174.78 100.41 175.811 99.3832 175.811 98.1172V92.0702C175.811 90.8042 174.78 89.7779 173.509 89.7779H151.297C150.026 89.7779 148.996 90.8042 148.996 92.0702V98.1172C148.996 99.3832 150.026 100.41 151.297 100.41Z" fill="#4F3DFE"/>
<path opacity="0.1" d="M151.297 100.41H173.509C174.78 100.41 175.811 99.3832 175.811 98.1172V92.0702C175.811 90.8042 174.78 89.7779 173.509 89.7779H151.297C150.026 89.7779 148.996 90.8042 148.996 92.0702V98.1172C148.996 99.3832 150.026 100.41 151.297 100.41Z" fill="black"/>
<path d="M124.483 100.41H146.695C147.966 100.41 148.996 99.3832 148.996 98.1172V92.0702C148.996 90.8042 147.966 89.7779 146.695 89.7779H124.483C123.212 89.7779 122.181 90.8042 122.181 92.0702V98.1172C122.181 99.3832 123.212 100.41 124.483 100.41Z" fill="#4F3DFE"/>
<path d="M97.6679 100.41H119.88C121.151 100.41 122.181 99.3832 122.181 98.1172V92.0702C122.181 90.8042 121.151 89.7779 119.88 89.7779H97.6679C96.3968 89.7779 95.3665 90.8042 95.3665 92.0702V98.1172C95.3665 99.3832 96.3968 100.41 97.6679 100.41Z" fill="#4F3DFE"/>
<path opacity="0.1" d="M97.6679 100.41H119.88C121.151 100.41 122.181 99.3832 122.181 98.1172V92.0702C122.181 90.8042 121.151 89.7779 119.88 89.7779H97.6679C96.3968 89.7779 95.3665 90.8042 95.3665 92.0702V98.1172C95.3665 99.3832 96.3968 100.41 97.6679 100.41Z" fill="black"/>
<path d="M70.8534 100.41H93.0653C94.3363 100.41 95.3667 99.3832 95.3667 98.1172V92.0702C95.3667 90.8042 94.3363 89.7779 93.0653 89.7779H70.8534C69.5824 89.7779 68.552 90.8042 68.552 92.0702V98.1172C68.552 99.3832 69.5824 100.41 70.8534 100.41Z" fill="#4F3DFE"/>
<path d="M44.0385 100.41H66.2504C67.5214 100.41 68.5518 99.3832 68.5518 98.1172V92.0702C68.5518 90.8042 67.5214 89.7779 66.2504 89.7779H44.0385C42.7674 89.7779 41.7371 90.8042 41.7371 92.0702V98.1172C41.7371 99.3832 42.7674 100.41 44.0385 100.41Z" fill="#4F3DFE"/>
<path opacity="0.1" d="M44.0385 100.41H66.2504C67.5214 100.41 68.5518 99.3832 68.5518 98.1172V92.0702C68.5518 90.8042 67.5214 89.7779 66.2504 89.7779H44.0385C42.7674 89.7779 41.7371 90.8042 41.7371 92.0702V98.1172C41.7371 99.3832 42.7674 100.41 44.0385 100.41Z" fill="black"/>
<path d="M66.2506 79.6649H44.0387C42.7677 79.6649 41.7373 80.6912 41.7373 81.9572V88.0043C41.7373 89.2703 42.7677 90.2966 44.0387 90.2966H66.2506C67.5216 90.2966 68.552 89.2703 68.552 88.0043V81.9572C68.552 80.6912 67.5216 79.6649 66.2506 79.6649Z" fill="#4F3DFE"/>
<path d="M93.0651 79.6649H70.8531C69.5821 79.6649 68.5518 80.6912 68.5518 81.9572V88.0043C68.5518 89.2703 69.5821 90.2966 70.8531 90.2966H93.0651C94.3361 90.2966 95.3664 89.2703 95.3664 88.0043V81.9572C95.3664 80.6912 94.3361 79.6649 93.0651 79.6649Z" fill="#4F3DFE"/>
<path opacity="0.1" d="M93.0651 79.6649H70.8531C69.5821 79.6649 68.5518 80.6912 68.5518 81.9572V88.0043C68.5518 89.2703 69.5821 90.2966 70.8531 90.2966H93.0651C94.3361 90.2966 95.3664 89.2703 95.3664 88.0043V81.9572C95.3664 80.6912 94.3361 79.6649 93.0651 79.6649Z" fill="black"/>
<path d="M119.88 79.6649H97.6681C96.3971 79.6649 95.3667 80.6912 95.3667 81.9572V88.0043C95.3667 89.2703 96.3971 90.2966 97.6681 90.2966H119.88C121.151 90.2966 122.181 89.2703 122.181 88.0043V81.9572C122.181 80.6912 121.151 79.6649 119.88 79.6649Z" fill="#4F3DFE"/>
<path d="M146.694 79.6649H124.483C123.212 79.6649 122.181 80.6912 122.181 81.9572V88.0043C122.181 89.2703 123.212 90.2966 124.483 90.2966H146.694C147.965 90.2966 148.996 89.2703 148.996 88.0043V81.9572C148.996 80.6912 147.965 79.6649 146.694 79.6649Z" fill="#4F3DFE"/>
<path opacity="0.1" d="M146.694 79.6649H124.483C123.212 79.6649 122.181 80.6912 122.181 81.9572V88.0043C122.181 89.2703 123.212 90.2966 124.483 90.2966H146.694C147.965 90.2966 148.996 89.2703 148.996 88.0043V81.9572C148.996 80.6912 147.965 79.6649 146.694 79.6649Z" fill="black"/>
<path d="M173.509 79.6649H151.297C150.026 79.6649 148.996 80.6912 148.996 81.9572V88.0043C148.996 89.2703 150.026 90.2966 151.297 90.2966H173.509C174.78 90.2966 175.811 89.2703 175.811 88.0043V81.9572C175.811 80.6912 174.78 79.6649 173.509 79.6649Z" fill="#4F3DFE"/>
<path d="M200.324 79.6649H178.112C176.841 79.6649 175.811 80.6912 175.811 81.9572V88.0043C175.811 89.2703 176.841 90.2966 178.112 90.2966H200.324C201.595 90.2966 202.625 89.2703 202.625 88.0043V81.9572C202.625 80.6912 201.595 79.6649 200.324 79.6649Z" fill="#4F3DFE"/>
<path opacity="0.1" d="M200.324 79.6649H178.112C176.841 79.6649 175.811 80.6912 175.811 81.9572V88.0043C175.811 89.2703 176.841 90.2966 178.112 90.2966H200.324C201.595 90.2966 202.625 89.2703 202.625 88.0043V81.9572C202.625 80.6912 201.595 79.6649 200.324 79.6649Z" fill="black"/>
<path d="M178.112 79.6649H200.324C201.595 79.6649 202.625 78.6386 202.625 77.3726V71.3255C202.625 70.0595 201.595 69.0332 200.324 69.0332H178.112C176.841 69.0332 175.811 70.0595 175.811 71.3255V77.3726C175.811 78.6386 176.841 79.6649 178.112 79.6649Z" fill="#4F3DFE"/>
<path d="M151.297 79.6649H173.509C174.78 79.6649 175.811 78.6386 175.811 77.3726V71.3255C175.811 70.0595 174.78 69.0332 173.509 69.0332H151.297C150.026 69.0332 148.996 70.0595 148.996 71.3255V77.3726C148.996 78.6386 150.026 79.6649 151.297 79.6649Z" fill="#4F3DFE"/>
<path opacity="0.1" d="M151.297 79.6649H173.509C174.78 79.6649 175.811 78.6386 175.811 77.3726V71.3255C175.811 70.0595 174.78 69.0332 173.509 69.0332H151.297C150.026 69.0332 148.996 70.0595 148.996 71.3255V77.3726C148.996 78.6386 150.026 79.6649 151.297 79.6649Z" fill="black"/>
<path d="M124.483 79.6649H146.695C147.966 79.6649 148.996 78.6386 148.996 77.3726V71.3255C148.996 70.0595 147.966 69.0332 146.695 69.0332H124.483C123.212 69.0332 122.181 70.0595 122.181 71.3255V77.3726C122.181 78.6386 123.212 79.6649 124.483 79.6649Z" fill="#4F3DFE"/>
<path d="M97.6679 79.6649H119.88C121.151 79.6649 122.181 78.6386 122.181 77.3726V71.3255C122.181 70.0595 121.151 69.0332 119.88 69.0332H97.6679C96.3968 69.0332 95.3665 70.0595 95.3665 71.3255V77.3726C95.3665 78.6386 96.3968 79.6649 97.6679 79.6649Z" fill="#4F3DFE"/>
<path opacity="0.1" d="M97.6679 79.6649H119.88C121.151 79.6649 122.181 78.6386 122.181 77.3726V71.3255C122.181 70.0595 121.151 69.0332 119.88 69.0332H97.6679C96.3968 69.0332 95.3665 70.0595 95.3665 71.3255V77.3726C95.3665 78.6386 96.3968 79.6649 97.6679 79.6649Z" fill="black"/>
<path d="M70.8534 79.6649H93.0653C94.3363 79.6649 95.3667 78.6386 95.3667 77.3726V71.3255C95.3667 70.0595 94.3363 69.0332 93.0653 69.0332H70.8534C69.5824 69.0332 68.552 70.0595 68.552 71.3255V77.3726C68.552 78.6386 69.5824 79.6649 70.8534 79.6649Z" fill="#4F3DFE"/>
<path d="M44.0385 79.6649H66.2504C67.5214 79.6649 68.5518 78.6386 68.5518 77.3726V71.3255C68.5518 70.0595 67.5214 69.0332 66.2504 69.0332H44.0385C42.7674 69.0332 41.7371 70.0595 41.7371 71.3255V77.3726C41.7371 78.6386 42.7674 79.6649 44.0385 79.6649Z" fill="#4F3DFE"/>
<path opacity="0.1" d="M44.0385 79.6649H66.2504C67.5214 79.6649 68.5518 78.6386 68.5518 77.3726V71.3255C68.5518 70.0595 67.5214 69.0332 66.2504 69.0332H44.0385C42.7674 69.0332 41.7371 70.0595 41.7371 71.3255V77.3726C41.7371 78.6386 42.7674 79.6649 44.0385 79.6649Z" fill="black"/>
<path d="M66.2506 58.4015H44.0387C42.7677 58.4015 41.7373 59.4278 41.7373 60.6938V66.7409C41.7373 68.0069 42.7677 69.0332 44.0387 69.0332H66.2506C67.5216 69.0332 68.552 68.0069 68.552 66.7409V60.6938C68.552 59.4278 67.5216 58.4015 66.2506 58.4015Z" fill="#4F3DFE"/>
<path d="M93.0651 58.4015H70.8531C69.5821 58.4015 68.5518 59.4278 68.5518 60.6938V66.7409C68.5518 68.0069 69.5821 69.0332 70.8531 69.0332H93.0651C94.3361 69.0332 95.3664 68.0069 95.3664 66.7409V60.6938C95.3664 59.4278 94.3361 58.4015 93.0651 58.4015Z" fill="#4F3DFE"/>
<path opacity="0.1" d="M93.0651 58.4015H70.8531C69.5821 58.4015 68.5518 59.4278 68.5518 60.6938V66.7409C68.5518 68.0069 69.5821 69.0332 70.8531 69.0332H93.0651C94.3361 69.0332 95.3664 68.0069 95.3664 66.7409V60.6938C95.3664 59.4278 94.3361 58.4015 93.0651 58.4015Z" fill="black"/>
<path d="M119.88 58.4015H97.6681C96.3971 58.4015 95.3667 59.4278 95.3667 60.6938V66.7409C95.3667 68.0069 96.3971 69.0332 97.6681 69.0332H119.88C121.151 69.0332 122.181 68.0069 122.181 66.7409V60.6938C122.181 59.4278 121.151 58.4015 119.88 58.4015Z" fill="#4F3DFE"/>
<path d="M146.694 58.4015H124.483C123.212 58.4015 122.181 59.4278 122.181 60.6938V66.7409C122.181 68.0069 123.212 69.0332 124.483 69.0332H146.694C147.965 69.0332 148.996 68.0069 148.996 66.7409V60.6938C148.996 59.4278 147.965 58.4015 146.694 58.4015Z" fill="#4F3DFE"/>
<path opacity="0.1" d="M146.694 58.4015H124.483C123.212 58.4015 122.181 59.4278 122.181 60.6938V66.7409C122.181 68.0069 123.212 69.0332 124.483 69.0332H146.694C147.965 69.0332 148.996 68.0069 148.996 66.7409V60.6938C148.996 59.4278 147.965 58.4015 146.694 58.4015Z" fill="black"/>
<path d="M173.509 58.4015H151.297C150.026 58.4015 148.996 59.4278 148.996 60.6938V66.7409C148.996 68.0069 150.026 69.0332 151.297 69.0332H173.509C174.78 69.0332 175.811 68.0069 175.811 66.7409V60.6938C175.811 59.4278 174.78 58.4015 173.509 58.4015Z" fill="#4F3DFE"/>
<path d="M200.324 58.4015H178.112C176.841 58.4015 175.811 59.4278 175.811 60.6938V66.7409C175.811 68.0069 176.841 69.0332 178.112 69.0332H200.324C201.595 69.0332 202.625 68.0069 202.625 66.7409V60.6938C202.625 59.4278 201.595 58.4015 200.324 58.4015Z" fill="#4F3DFE"/>
<path opacity="0.1" d="M200.324 58.4015H178.112C176.841 58.4015 175.811 59.4278 175.811 60.6938V66.7409C175.811 68.0069 176.841 69.0332 178.112 69.0332H200.324C201.595 69.0332 202.625 68.0069 202.625 66.7409V60.6938C202.625 59.4278 201.595 58.4015 200.324 58.4015Z" fill="black"/>
<path d="M200.324 22.9824H176.029C174.758 22.9824 173.728 24.0087 173.728 25.2747V32.1464C173.728 33.4124 174.758 34.4387 176.029 34.4387H200.324C201.595 34.4387 202.625 33.4124 202.625 32.1464V25.2747C202.625 24.0087 201.595 22.9824 200.324 22.9824Z" fill="url(#paint0_linear)"/>
<path d="M177.071 34.0264H199.283C200.554 34.0264 201.584 33.0001 201.584 31.7341V25.687C201.584 24.421 200.554 23.3947 199.283 23.3947L177.071 23.3947C175.8 23.3947 174.769 24.421 174.769 25.687V31.7341C174.769 33.0001 175.8 34.0264 177.071 34.0264Z" fill="#4F3DFE"/>
<path d="M151.297 58.4015H173.509C174.78 58.4015 175.811 57.3752 175.811 56.1092V50.0621C175.811 48.7961 174.78 47.7698 173.509 47.7698H151.297C150.026 47.7698 148.996 48.7961 148.996 50.0621V56.1092C148.996 57.3752 150.026 58.4015 151.297 58.4015Z" fill="#4F3DFE"/>
<path opacity="0.1" d="M151.297 58.4015H173.509C174.78 58.4015 175.811 57.3752 175.811 56.1092V50.0621C175.811 48.7961 174.78 47.7698 173.509 47.7698H151.297C150.026 47.7698 148.996 48.7961 148.996 50.0621V56.1092C148.996 57.3752 150.026 58.4015 151.297 58.4015Z" fill="black"/>
<path d="M124.483 58.4015H146.695C147.966 58.4015 148.996 57.3752 148.996 56.1092V50.0621C148.996 48.7961 147.966 47.7698 146.695 47.7698H124.483C123.212 47.7698 122.181 48.7961 122.181 50.0621V56.1092C122.181 57.3752 123.212 58.4015 124.483 58.4015Z" fill="#4F3DFE"/>
<path d="M97.6679 58.4015H119.88C121.151 58.4015 122.181 57.3752 122.181 56.1092V50.0621C122.181 48.7961 121.151 47.7698 119.88 47.7698H97.6679C96.3968 47.7698 95.3665 48.7961 95.3665 50.0621V56.1092C95.3665 57.3752 96.3968 58.4015 97.6679 58.4015Z" fill="#4F3DFE"/>
<path opacity="0.1" d="M97.6679 58.4015H119.88C121.151 58.4015 122.181 57.3752 122.181 56.1092V50.0621C122.181 48.7961 121.151 47.7698 119.88 47.7698H97.6679C96.3968 47.7698 95.3665 48.7961 95.3665 50.0621V56.1092C95.3665 57.3752 96.3968 58.4015 97.6679 58.4015Z" fill="black"/>
<path d="M70.8534 58.4015H93.0653C94.3363 58.4015 95.3667 57.3752 95.3667 56.1092V50.0621C95.3667 48.7961 94.3363 47.7698 93.0653 47.7698H70.8534C69.5824 47.7698 68.552 48.7961 68.552 50.0621V56.1092C68.552 57.3752 69.5824 58.4015 70.8534 58.4015Z" fill="#4F3DFE"/>
<path d="M44.0385 58.4015H66.2504C67.5214 58.4015 68.5518 57.3752 68.5518 56.1092V50.0621C68.5518 48.7961 67.5214 47.7698 66.2504 47.7698H44.0385C42.7674 47.7698 41.7371 48.7961 41.7371 50.0621V56.1092C41.7371 57.3752 42.7674 58.4015 44.0385 58.4015Z" fill="#4F3DFE"/>
<path opacity="0.1" d="M44.0385 58.4015H66.2504C67.5214 58.4015 68.5518 57.3752 68.5518 56.1092V50.0621C68.5518 48.7961 67.5214 47.7698 66.2504 47.7698H44.0385C42.7674 47.7698 41.7371 48.7961 41.7371 50.0621V56.1092C41.7371 57.3752 42.7674 58.4015 44.0385 58.4015Z" fill="black"/>
<path d="M129.908 184.167C201.654 184.167 259.816 170.99 259.816 154.735C259.816 138.48 201.654 125.303 129.908 125.303C58.1618 125.303 0 138.48 0 154.735C0 170.99 58.1618 184.167 129.908 184.167Z" fill="#EDECFF"/>
<path d="M29.6653 141.526C29.6653 141.526 32.0084 133.64 29.228 127.834C28.0495 125.407 27.6941 122.664 28.2153 120.019C28.4725 118.764 28.8446 117.536 29.3269 116.349" stroke="#535461" stroke-width="2" stroke-miterlimit="10"/>
<path d="M27.6035 112.683C27.6035 113.65 29.3608 116.453 29.3608 116.453C29.3608 116.453 31.1181 113.65 31.1181 112.683C31.1181 112.218 30.9329 111.773 30.6034 111.445C30.2738 111.117 29.8268 110.932 29.3608 110.932C28.8947 110.932 28.4478 111.117 28.1182 111.445C27.7887 111.773 27.6035 112.218 27.6035 112.683Z" fill="#4F3DFE"/>
<path d="M24.6981 118.037C25.2188 118.849 28.2309 120.249 28.2309 120.249C28.2309 120.249 28.1762 116.946 27.6477 116.134C27.3931 115.747 26.9951 115.477 26.5407 115.381C26.0863 115.286 25.6125 115.373 25.2227 115.625C24.833 115.876 24.559 116.271 24.4607 116.723C24.3624 117.175 24.4478 117.648 24.6981 118.037Z" fill="#4F3DFE"/>
<path d="M24.8257 127.186C25.6926 127.622 28.991 127.321 28.991 127.321C28.991 127.321 27.2702 124.497 26.4033 124.061C25.9887 123.864 25.5128 123.836 25.0778 123.984C24.6427 124.131 24.2831 124.443 24.0761 124.852C23.869 125.26 23.831 125.734 23.9702 126.17C24.1093 126.606 24.4145 126.971 24.8204 127.186H24.8257Z" fill="#4F3DFE"/>
<path d="M26.4865 134.086C27.2675 134.662 30.5738 134.921 30.5738 134.921C30.5738 134.921 29.3554 131.848 28.577 131.273C28.2012 131.027 27.7451 130.933 27.3024 131.012C26.8597 131.091 26.4643 131.336 26.1974 131.697C25.9305 132.057 25.8126 132.506 25.8678 132.95C25.923 133.395 26.1473 133.801 26.4943 134.086H26.4865Z" fill="#4F3DFE"/>
<path d="M31.9198 120.436C31.2248 121.11 27.981 121.808 27.981 121.808C27.981 121.808 28.775 118.6 29.4701 117.918C29.6355 117.758 29.8311 117.632 30.0455 117.547C30.2599 117.462 30.4891 117.42 30.7198 117.423C30.9506 117.426 31.1784 117.475 31.3903 117.566C31.6023 117.657 31.7941 117.788 31.955 117.953C32.1159 118.118 32.2425 118.313 32.3278 118.526C32.4131 118.74 32.4553 118.968 32.4521 119.198C32.4488 119.428 32.4001 119.655 32.3088 119.866C32.2175 120.077 32.0853 120.268 31.9198 120.428V120.436Z" fill="#4F3DFE"/>
<path d="M33.7601 128.524C32.8932 128.96 29.5947 128.659 29.5947 128.659C29.5947 128.659 31.3156 125.835 32.1825 125.399C32.5956 125.214 33.0648 125.194 33.492 125.345C33.9192 125.496 34.2714 125.805 34.475 126.208C34.6787 126.612 34.718 127.078 34.5848 127.509C34.4515 127.941 34.1561 128.304 33.7601 128.524Z" fill="#4F3DFE"/>
<path d="M34.4633 136.646C33.6823 137.221 30.376 137.48 30.376 137.48C30.376 137.48 31.5944 134.408 32.3728 133.832C32.7485 133.586 33.2047 133.493 33.6474 133.572C34.09 133.651 34.4855 133.895 34.7524 134.256C35.0193 134.616 35.1372 135.065 35.082 135.51C35.0267 135.954 34.8025 136.361 34.4555 136.646H34.4633Z" fill="#4F3DFE"/>
<path d="M155.415 96.8363C155.415 96.8363 163.978 105.365 159.143 118.019C154.309 130.674 167.43 151.73 167.43 151.73C167.43 151.73 167.289 151.709 167.029 151.662C149.443 148.558 140.706 128.524 150.485 113.645C154.119 108.111 157.105 101.623 155.415 96.8363Z" fill="#4F3DFE"/>
<path opacity="0.2" d="M155.415 96.8363C155.415 96.8363 163.978 105.365 159.143 118.019C154.309 130.674 167.43 151.73 167.43 151.73C167.43 151.73 167.289 151.709 167.029 151.662C149.443 148.558 140.706 128.524 150.485 113.645C154.119 108.111 157.105 101.623 155.415 96.8363Z" fill="black"/>
<path d="M155.416 96.8363C155.416 96.8363 160.25 107.289 155.416 115.818C150.581 124.346 154.588 148.278 167.438 151.717" stroke="#535461" stroke-miterlimit="10"/>
<path d="M140.168 131.327C140.168 131.327 149.938 129.771 150.829 138.5C151.719 147.228 169.615 148.429 169.615 148.429L169.279 148.652C154.502 158.313 140.381 154.805 142.506 141.977C143.297 137.208 143.227 132.414 140.168 131.327Z" fill="#4F3DFE"/>
<path opacity="0.2" d="M140.168 131.327C140.168 131.327 149.938 129.771 150.829 138.5C151.719 147.228 169.615 148.429 169.615 148.429L169.279 148.652C154.502 158.313 140.381 154.805 142.506 141.977C143.297 137.208 143.227 132.414 140.168 131.327Z" fill="#F5F5F5"/>
<path d="M140.168 131.327C140.168 131.327 147.752 132.984 147.129 139.853C146.507 146.722 158.392 154.955 169.615 148.429" stroke="#535461" stroke-miterlimit="10"/>
<path d="M214.499 151.403C214.499 151.403 199.998 148.514 196.13 144.661C192.261 140.807 174.86 134.068 172.926 138.883C170.992 143.699 146.825 160.072 163.273 162.96C179.721 165.849 201.943 166.811 206.778 164.887C211.612 162.963 214.499 151.403 214.499 151.403Z" fill="#A8A8A8"/>
<path opacity="0.2" d="M163.273 161.171C179.708 164.06 201.943 165.022 206.778 163.098C210.459 161.63 213.026 154.585 214.028 151.304L214.512 151.405C214.512 151.405 211.612 162.96 206.778 164.89C201.943 166.819 179.703 165.852 163.273 162.963C158.53 162.128 157.173 160.17 157.684 157.691C158.066 159.307 159.73 160.549 163.273 161.171Z" fill="black"/>
<path d="M243.839 23.138C243.581 22.4965 243.169 21.9277 242.639 21.481C238.747 17.9492 232.455 19.0202 227.623 16.8601C226.508 16.3622 225.368 15.6725 224.16 15.8618C222.473 16.1211 220.903 18.04 219.432 17.1894L219.537 17.5084L219.432 17.4539L220.516 20.7368C220.932 21.997 221.369 23.2936 222.176 24.3438C220.982 25.3817 220.067 26.7014 219.516 28.1824C218.966 29.6633 218.797 31.2581 219.025 32.8209C219.253 34.3836 219.871 35.8644 220.822 37.1278C221.774 38.3912 223.028 39.3969 224.47 40.0528C224.522 40.1617 224.572 40.2732 224.621 40.3847L224.759 40.4417C225.079 41.176 225.319 41.9429 225.472 42.7288C224.22 42.9026 222.036 44.2847 219.891 46.3177L215.6 46.175C212.825 46.0828 210.14 45.1732 207.884 43.5612L195.034 34.3687C194.118 34.4585 193.256 34.8384 192.574 35.4526C190.98 33.7982 189.627 32.0816 189.741 31.0443C189.741 31.0443 183.769 19.9122 181.598 25.477C179.427 31.0417 185.669 36.8866 185.669 36.8866L189.629 41.9976C189.473 42.8937 189.374 43.7988 189.332 44.7074C194.219 50.2747 211.318 55.3105 211.318 55.3105L213.984 55.4402L213.999 55.5698C213.835 56.2667 213.755 56.9804 213.76 57.6962C213.76 57.7999 213.76 57.9062 213.76 58.0151C213.76 58.124 213.76 58.1577 213.76 58.2278C213.895 67.1065 215.116 94.2718 215.116 94.2718C215.353 94.1654 215.6 94.0695 215.85 93.9787L215.66 96.3929C215.66 96.3929 204.26 97.9825 195.846 101.164C187.432 104.346 187.161 108.057 187.161 108.057V140.797C184.758 142.026 180.965 143.649 179.018 142.776C176.904 141.837 175.745 142.625 175.535 143.447C175.494 143.61 175.494 143.78 175.535 143.942C175.552 144.016 175.579 144.086 175.615 144.153V144.168C175.654 144.237 175.702 144.3 175.758 144.355C176.573 145.151 194.216 152.041 198.288 150.98C198.414 150.947 198.537 150.906 198.658 150.856C198.697 150.84 198.731 150.819 198.77 150.801C198.809 150.783 198.921 150.731 198.991 150.69C199.061 150.648 199.072 150.635 199.111 150.609C199.15 150.583 199.233 150.529 199.29 150.485C199.348 150.441 199.366 150.417 199.402 150.384C199.439 150.35 199.509 150.293 199.556 150.241C199.603 150.189 199.623 150.163 199.657 150.124C199.691 150.086 199.751 150.021 199.793 149.964C199.834 149.907 199.85 149.878 199.881 149.837C199.912 149.795 199.965 149.717 200.001 149.655C200.037 149.593 200.05 149.567 200.074 149.52C200.097 149.474 200.147 149.388 200.181 149.318C200.214 149.248 200.222 149.227 200.24 149.181C200.259 149.134 200.306 149.033 200.334 148.958C200.363 148.882 200.365 148.867 200.384 148.82C200.402 148.773 200.441 148.657 200.464 148.561C200.464 148.517 200.488 148.473 200.501 148.429C200.524 148.338 200.55 148.25 200.571 148.169C200.571 148.128 200.589 148.086 200.597 148.045C200.618 147.946 200.639 147.848 200.654 147.749C200.654 147.713 200.654 147.674 200.673 147.638C200.691 147.531 200.706 147.422 200.72 147.316V147.223C200.733 147.106 200.746 146.989 200.756 146.873V146.8C200.766 146.674 200.774 146.548 200.779 146.421V146.37C200.779 146.235 200.779 146.1 200.779 145.965V145.939C200.774 144.358 200.6 142.782 200.259 141.238L201.282 113.354C206.613 113.437 211.945 113.241 217.256 112.768L217.839 126.076C217.839 126.076 217.839 134.823 220.825 138.798C223.382 142.2 226.334 157.248 227.131 161.518C226.035 163.593 223.936 166.186 220.281 166.098C220.281 166.098 213.406 165.507 213.794 167.394C213.805 167.444 213.819 167.492 213.838 167.54C213.86 167.594 213.885 167.647 213.913 167.698C213.942 167.747 213.973 167.796 214.01 167.848L214.031 167.879C214.07 167.934 214.114 167.991 214.163 168.05V168.063C214.21 168.118 214.26 168.172 214.314 168.227L214.361 168.273C214.424 168.336 214.486 168.398 214.559 168.463C218.087 171.645 238.716 172.174 238.716 172.174V172.101C238.716 172.08 238.716 172.054 238.716 172.026C238.716 171.105 238.58 166.277 237.346 162.641H237.633C237.633 162.641 234.647 135.87 232.205 132.691C232.205 132.691 231.556 118.574 233.019 109.729L233.28 109.631C240.121 107.084 240.608 100.814 239.903 96.2088C241.204 96.6237 241.965 96.9063 241.965 96.9063C241.965 96.9063 241.941 96.7067 241.897 96.3514L241.965 96.3773C241.965 96.3773 241.834 95.5346 241.618 94.2225C241.129 90.6103 240.181 84.2987 239.171 81.3193C239.007 80.6632 238.851 80.1031 238.708 79.6804C238.125 77.89 237.725 76.0456 237.513 74.1753C237.236 71.7509 237.096 69.3131 237.094 66.8731C237.116 63.6132 237.366 60.3587 237.844 57.1335C238.257 54.3174 238.625 51.1123 238.598 48.8745C238.627 48.0929 238.572 47.3106 238.434 46.5407C238.073 44.8889 236.472 43.8153 234.808 43.1308C234.701 43.0867 234.592 43.0504 234.483 43.0089C234.524 42.3839 234.576 41.6734 234.644 40.9344C234.843 41.072 235.069 41.1678 235.306 41.2159C235.544 41.2641 235.789 41.2636 236.026 41.2145C236.742 41.0589 237.255 40.4651 237.711 39.9179C240.116 36.9747 242.587 33.9071 243.511 30.2509C243.884 28.6181 244.059 26.9465 244.032 25.2721C244.032 25.1805 244.032 25.0889 244.032 24.9972C244.076 24.3711 244.011 23.7419 243.839 23.138Z" fill="url(#paint1_linear)"/>
<path d="M221.937 37.4857C221.937 37.4857 225.582 42.9312 224.801 45.5243C224.02 48.1174 233.392 46.5615 233.392 46.5615C233.392 46.5615 233.652 36.4484 235.475 34.1146C237.297 31.7809 221.937 37.4857 221.937 37.4857Z" fill="#F7C4A7"/>
<path d="M197.856 40.9863C197.856 40.9863 190.306 34.7629 190.566 32.4291C190.566 32.4291 184.839 21.5381 182.756 26.9836C180.674 32.4291 186.661 38.1339 186.661 38.1339L193.951 47.7284L197.856 40.9863Z" fill="#F7C4A7"/>
<path d="M190.176 138.616C190.176 138.616 183.147 143.024 180.283 141.728C177.42 140.431 176.378 142.506 177.159 143.284C177.94 144.062 194.862 150.804 198.767 149.767C202.672 148.729 200.686 140.234 200.686 140.234L190.176 138.616Z" fill="#535461"/>
<path d="M227.404 157.546C227.404 157.546 225.712 164.677 219.854 164.547C219.854 164.547 211.003 163.769 214.387 166.881C217.772 169.993 237.557 170.511 237.557 170.511C237.557 170.511 237.557 159.88 233.913 157.546C230.268 155.212 227.404 157.546 227.404 157.546Z" fill="#535461"/>
<path d="M216.73 107.24L217.511 125.391C217.511 125.391 217.511 133.949 220.375 137.838C223.238 141.728 226.623 161.176 226.623 161.176H236.516C236.516 161.176 233.652 134.986 231.309 131.874C231.309 131.874 230.267 108.796 233.912 103.609L216.73 107.24Z" fill="#575988"/>
<path opacity="0.1" d="M216.73 107.24L217.511 125.391C217.511 125.391 217.511 133.949 220.375 137.838C223.238 141.728 226.623 161.176 226.623 161.176H236.516C236.516 161.176 233.652 134.986 231.309 131.874C231.309 131.874 230.267 108.796 233.912 103.609L216.73 107.24Z" fill="black"/>
<path d="M237.297 90.9034C237.297 90.9034 243.285 105.165 232.35 109.314C221.416 113.463 201.631 112.945 201.631 112.945L200.589 143.025C200.589 143.025 188.354 144.58 188.093 140.691V107.758C188.093 107.758 188.354 104.128 196.424 101.016C204.494 97.9047 215.429 96.3489 215.429 96.3489L215.949 89.6068L237.297 90.9034Z" fill="#575988"/>
<path opacity="0.1" d="M227.703 43.9191C229.783 43.6898 231.887 43.9859 233.821 44.78C235.417 45.449 236.945 46.4992 237.299 48.1147C237.711 50.0284 237.255 54.32 236.732 57.9529C235.894 63.6461 235.787 69.4225 236.414 75.1426C236.675 77.5256 237.052 79.6027 237.56 80.5284C239.122 83.3808 240.684 96.8649 240.684 96.8649C240.684 96.8649 223.502 90.3822 214.91 94.2718C214.91 94.2718 213.739 67.6926 213.609 59.0057C213.507 52.2792 222.07 44.6141 224.933 44.3547C226.61 44.2043 226.035 44.0928 227.703 43.9191Z" fill="black"/>
<path d="M227.703 43.4004C229.783 43.1711 231.887 43.4672 233.821 44.2613C235.417 44.9304 236.945 45.9806 237.299 47.5961C237.711 49.5098 237.255 53.8013 236.732 57.4343C235.894 63.1275 235.787 68.9038 236.414 74.6239C236.617 76.4524 237.001 78.2565 237.56 80.0097C238.731 83.5104 240.684 96.3462 240.684 96.3462C240.684 96.3462 223.502 89.8635 214.91 93.7531C214.91 93.7531 213.739 67.1739 213.609 58.4871C213.507 51.7606 222.07 44.0954 224.933 43.8361C226.61 43.6857 226.035 43.5742 227.703 43.4004Z" fill="#E14B5A"/>
<path opacity="0.1" d="M232.35 57.7117L213.866 56.6744C213.866 56.6744 212.69 47.6478 215.358 47.7412L233.652 48.3765C233.652 48.3765 237.557 53.0441 232.35 57.7117Z" fill="black"/>
<path d="M232.35 57.1931L211.263 56.1559C211.263 56.1559 194.862 51.229 190.176 45.7835C190.176 45.7835 190.436 36.189 195.643 35.6704L207.959 44.6659C210.112 46.2385 212.69 47.1294 215.358 47.2226L233.652 47.858C233.652 47.858 237.557 52.5255 232.35 57.1931Z" fill="#E14B5A"/>
<path opacity="0.1" d="M233.262 38.6525C233.571 36.1943 234.691 35.3774 235.475 34.3739C237.297 32.0401 221.937 37.7449 221.937 37.7449C222.731 38.9598 223.427 40.2352 224.02 41.5594C225.244 42.1214 226.576 42.4124 227.925 42.4125C230.179 42.4125 231.642 39.9828 233.262 38.6525Z" fill="black"/>
<path d="M227.925 42.1532C233.101 42.1532 237.297 37.9737 237.297 32.8181C237.297 27.6624 233.101 23.4829 227.925 23.4829C222.749 23.4829 218.553 27.6624 218.553 32.8181C218.553 37.9737 222.749 42.1532 227.925 42.1532Z" fill="#F7C4A7"/>
<path opacity="0.1" d="M222.007 26.2757C221.01 25.1892 220.529 23.7423 220.076 22.3394L219.034 19.1266C220.445 19.9563 221.95 18.0893 223.569 17.83C224.728 17.6459 225.824 18.3201 226.891 18.805C231.525 20.9158 237.565 19.8682 241.293 23.3248C241.803 23.7643 242.197 24.3204 242.444 24.9455C242.616 25.5344 242.686 26.1482 242.652 26.7606C242.682 28.3973 242.519 30.0319 242.165 31.6305C241.28 35.2063 238.911 38.2091 236.602 41.0875C236.164 41.6346 235.672 42.2155 234.985 42.3685C233.644 42.6667 232.608 41.2249 232.09 39.9595C231.404 38.2827 230.898 36.5382 230.58 34.7551C230.445 34.0005 230.338 33.2226 229.96 32.5562C229.153 31.1326 227.164 29.7842 225.957 28.6795C224.749 27.5749 223.116 27.4815 222.007 26.2757Z" fill="black"/>
<path d="M222.007 26.0163C221.01 24.9298 220.529 23.4829 220.076 22.08L219.034 18.8672C220.445 19.6969 221.95 17.8299 223.569 17.5706C224.728 17.3865 225.824 18.0607 226.891 18.5456C231.525 20.6564 237.565 19.6088 241.293 23.0654C241.803 23.5049 242.197 24.0611 242.444 24.6861C242.616 25.275 242.686 25.8888 242.652 26.5012C242.682 28.1379 242.519 29.7725 242.165 31.3711C241.28 34.9469 238.911 37.9497 236.602 40.8281C236.164 41.3752 235.672 41.9561 234.985 42.1091C233.644 42.4073 232.608 40.9655 232.09 39.7001C231.404 38.0233 230.898 36.2788 230.58 34.4957C230.445 33.7411 230.338 32.9632 229.96 32.2968C229.153 30.8732 227.164 29.5248 225.957 28.4201C224.749 27.3155 223.116 27.2221 222.007 26.0163Z" fill="#632652"/>
<path d="M230.398 35.5408C230.829 35.5408 231.179 34.7862 231.179 33.8553C231.179 32.9244 230.829 32.1698 230.398 32.1698C229.966 32.1698 229.617 32.9244 229.617 33.8553C229.617 34.7862 229.966 35.5408 230.398 35.5408Z" fill="#F7C4A7"/>
<path opacity="0.1" d="M235.084 78.8455C235.084 78.8455 234.563 80.4013 231.96 80.142C229.356 79.8827 221.807 79.3641 221.807 80.142" fill="black"/>
<path opacity="0.5" d="M214.387 166.622C213.918 166.191 213.684 165.844 213.629 165.54C213.562 165.878 213.77 166.318 214.387 166.881C217.771 169.993 237.557 170.511 237.557 170.511C237.557 170.511 237.557 170.421 237.557 170.252C237.429 170.249 217.761 169.723 214.387 166.622Z" fill="white"/>
<path opacity="0.5" d="M198.767 149.248C194.862 150.285 177.94 143.543 177.159 142.765C177.055 142.66 176.981 142.529 176.943 142.387C176.898 142.542 176.894 142.706 176.932 142.864C176.97 143.021 177.048 143.166 177.159 143.284C177.94 144.062 194.862 150.804 198.767 149.767C200.777 149.232 201.225 146.725 201.188 144.414C201.149 146.567 200.626 148.75 198.767 149.248Z" fill="white"/>
<path d="M130.713 146.458C130.816 146.458 130.916 146.417 130.989 146.344C131.062 146.271 131.103 146.172 131.103 146.069C131.103 145.966 131.062 145.867 130.989 145.794C130.916 145.721 130.816 145.68 130.713 145.68C130.609 145.68 130.51 145.721 130.436 145.794C130.363 145.867 130.322 145.966 130.322 146.069C130.322 146.172 130.363 146.271 130.436 146.344C130.51 146.417 130.609 146.458 130.713 146.458Z" fill="#67647E"/>
<path d="M23.8179 139.578C23.8179 139.578 33.5336 139.28 36.4598 137.203C39.386 135.126 51.4031 132.647 52.1295 135.977C52.8558 139.306 66.7318 152.541 55.7534 152.64C44.775 152.738 30.269 150.939 27.3454 149.165C24.4219 147.391 23.8179 139.578 23.8179 139.578Z" fill="#A8A8A8"/>
<path opacity="0.2" d="M55.959 151.47C44.991 151.558 30.4747 149.769 27.5511 147.995C25.3252 146.644 24.4271 141.801 24.1433 139.565H23.8179C23.8179 139.565 24.4323 147.371 27.3558 149.142C30.2794 150.913 44.7958 152.717 55.7534 152.64C58.9191 152.614 60.0125 151.494 59.9526 149.831C59.523 150.825 58.3151 151.452 55.959 151.47Z" fill="black"/>
<path d="M246.32 164.459H268.532C269.803 164.459 270.833 163.433 270.833 162.167V156.12C270.833 154.854 269.803 153.827 268.532 153.827H246.32C245.049 153.827 244.018 154.854 244.018 156.12V162.167C244.018 163.433 245.049 164.459 246.32 164.459Z" fill="#4F3DFE"/>
<path opacity="0.1" d="M246.32 164.459H268.532C269.803 164.459 270.833 163.433 270.833 162.167V156.12C270.833 154.854 269.803 153.827 268.532 153.827H246.32C245.049 153.827 244.018 154.854 244.018 156.12V162.167C244.018 163.433 245.049 164.459 246.32 164.459Z" fill="black"/>
<path d="M268.532 143.714H246.32C245.049 143.714 244.019 144.741 244.019 146.007V152.054C244.019 153.32 245.049 154.346 246.32 154.346H268.532C269.803 154.346 270.833 153.32 270.833 152.054V146.007C270.833 144.741 269.803 143.714 268.532 143.714Z" fill="#4F3DFE"/>
<path d="M246.32 143.714H268.532C269.803 143.714 270.833 142.688 270.833 141.422V135.375C270.833 134.109 269.803 133.083 268.532 133.083H246.32C245.049 133.083 244.018 134.109 244.018 135.375V141.422C244.018 142.688 245.049 143.714 246.32 143.714Z" fill="#4F3DFE"/>
<path opacity="0.1" d="M246.32 143.714H268.532C269.803 143.714 270.833 142.688 270.833 141.422V135.375C270.833 134.109 269.803 133.083 268.532 133.083H246.32C245.049 133.083 244.018 134.109 244.018 135.375V141.422C244.018 142.688 245.049 143.714 246.32 143.714Z" fill="black"/>
<path d="M268.532 122.451H246.32C245.049 122.451 244.019 123.477 244.019 124.743V130.79C244.019 132.056 245.049 133.083 246.32 133.083H268.532C269.803 133.083 270.833 132.056 270.833 130.79V124.743C270.833 123.477 269.803 122.451 268.532 122.451Z" fill="#4F3DFE"/>
</g>
<defs>
<linearGradient id="paint0_linear" x1="188.177" y1="34.4387" x2="188.177" y2="22.9824" gradientUnits="userSpaceOnUse">
<stop stop-color="#808080" stop-opacity="0.25"/>
<stop offset="0.54" stop-color="#808080" stop-opacity="0.12"/>
<stop offset="1" stop-color="#808080" stop-opacity="0.1"/>
</linearGradient>
<linearGradient id="paint1_linear" x1="60879.4" y1="113900" x2="60879.4" y2="19624.5" gradientUnits="userSpaceOnUse">
<stop stop-color="#808080" stop-opacity="0.25"/>
<stop offset="0.54" stop-color="#808080" stop-opacity="0.12"/>
<stop offset="1" stop-color="#808080" stop-opacity="0.1"/>
</linearGradient>
<clipPath id="clip0">
<rect width="270.833" height="168.333" fill="white" transform="translate(0 15.8333)"/>
</clipPath>
</defs>
</svg>
