<svg width="277" height="260" viewBox="0 0 277 260" fill="none" xmlns="http://www.w3.org/2000/svg">
<g clip-path="url(#clip0)">
<path d="M200.939 147.54V219.363L212.982 238.942L213.898 240.431H261.415L262.375 147.54H200.939Z" fill="#E6E6E6"/>
<path opacity="0.1" d="M200.939 147.54V219.363L212.982 238.942L213.721 147.54H200.939Z" fill="black"/>
<path d="M86.2271 145.624V217.448L74.1845 237.027L73.268 238.516H25.7513L24.7913 145.624H86.2271Z" fill="#E6E6E6"/>
<path opacity="0.1" d="M86.2274 145.624V217.447L74.1848 237.027L73.4458 145.624H86.2274Z" fill="black"/>
<path d="M276.774 144.188V148.497H18.5518V142.272L42.55 129.823H255.656L276.774 144.188Z" fill="#E6E6E6"/>
<path opacity="0.1" d="M276.774 144.188V148.497H18.5518V142.272L276.774 144.188Z" fill="black"/>
<path d="M55.5093 165.735H43.9898L39.1902 162.383H60.7888L55.5093 165.735Z" fill="#3F3D56"/>
<path d="M55.5093 179.62H43.9898L39.1902 176.269H60.7888L55.5093 179.62Z" fill="#3F3D56"/>
<path d="M55.5093 199.252H43.9898L39.1902 195.9H60.7888L55.5093 199.252Z" fill="#3F3D56"/>
<path d="M55.5093 218.884H43.9898L39.1902 215.532H60.7888L55.5093 218.884Z" fill="#3F3D56"/>
<path d="M231.657 167.65H243.176L247.976 164.298H226.377L231.657 167.65Z" fill="#3F3D56"/>
<path d="M231.657 181.536H243.176L247.976 178.184H226.377L231.657 181.536Z" fill="#3F3D56"/>
<path d="M231.657 201.168H243.176L247.976 197.816H226.377L231.657 201.168Z" fill="#3F3D56"/>
<path d="M231.657 220.799H243.176L247.976 217.447H226.377L231.657 220.799Z" fill="#3F3D56"/>
<path d="M239.502 46.7664H142.526C142.044 46.7663 141.567 46.8609 141.122 47.0448C140.677 47.2286 140.273 47.4981 139.932 47.8379C139.592 48.1776 139.321 48.581 139.137 49.0249C138.953 49.4688 138.858 49.9446 138.858 50.4251V115.595C138.858 116.075 138.953 116.551 139.137 116.995C139.321 117.439 139.592 117.842 139.932 118.182C140.273 118.522 140.677 118.791 141.122 118.975C141.567 119.159 142.044 119.254 142.526 119.254H179.339L177.959 128.038C177.959 128.038 170.078 132.215 175.619 132.338C181.161 132.461 207.27 132.338 207.27 132.338C207.27 132.338 212.319 132.338 204.314 127.915L203.017 119.254H239.502C239.983 119.254 240.46 119.159 240.905 118.975C241.35 118.791 241.754 118.522 242.095 118.182C242.436 117.842 242.706 117.439 242.89 116.995C243.074 116.551 243.169 116.075 243.169 115.595V50.4251C243.169 49.9446 243.074 49.4688 242.89 49.0249C242.706 48.581 242.436 48.1776 242.095 47.8379C241.754 47.4981 241.35 47.2286 240.905 47.0448C240.46 46.8609 239.983 46.7663 239.502 46.7664Z" fill="#3F3D56"/>
<path d="M239.659 50.6365H142.368V104.94H239.659V50.6365Z" fill="#F2F2F2"/>
<path d="M191.013 49.5307C191.354 49.5307 191.629 49.2557 191.629 48.9164C191.629 48.5772 191.354 48.3021 191.013 48.3021C190.673 48.3021 190.398 48.5772 190.398 48.9164C190.398 49.2557 190.673 49.5307 191.013 49.5307Z" fill="#F2F2F2"/>
<path d="M191.014 116.612C192.306 116.612 193.354 115.567 193.354 114.278C193.354 112.989 192.306 111.943 191.014 111.943C189.721 111.943 188.674 112.989 188.674 114.278C188.674 115.567 189.721 116.612 191.014 116.612Z" fill="#F2F2F2"/>
<path d="M187.367 138.973V140.201H121.111V139.218L121.202 138.973L122.835 134.55H186.013L187.367 138.973Z" fill="#3F3D56"/>
<path d="M212.865 137.77C212.744 138.285 212.289 138.828 211.259 139.341C207.565 141.184 200.052 138.85 200.052 138.85C200.052 138.85 194.264 137.867 194.264 135.287C194.426 135.176 194.596 135.075 194.771 134.986C196.325 134.166 201.475 132.143 210.607 135.071C211.28 135.282 211.881 135.675 212.343 136.206C212.548 136.407 212.702 136.654 212.792 136.925C212.883 137.197 212.908 137.487 212.865 137.77Z" fill="#3F3D56"/>
<path opacity="0.1" d="M212.865 137.77C208.343 139.498 204.312 139.627 200.175 136.761C198.611 135.607 196.717 134.985 194.771 134.986C196.325 134.166 201.475 132.143 210.607 135.071C211.28 135.282 211.881 135.675 212.343 136.206C212.548 136.407 212.702 136.654 212.793 136.925C212.883 137.197 212.908 137.487 212.865 137.77Z" fill="black"/>
<path d="M207.195 136.761C208.079 136.761 208.796 136.541 208.796 136.27C208.796 135.998 208.079 135.778 207.195 135.778C206.311 135.778 205.594 135.998 205.594 136.27C205.594 136.541 206.311 136.761 207.195 136.761Z" fill="#F2F2F2"/>
<path opacity="0.1" d="M187.367 138.973V140.201H121.111V139.218L121.202 138.973H187.367Z" fill="black"/>
<path d="M36.8397 6.17532e-05C36.1673 -0.055016 35.494 0.095042 34.9089 0.430352C34.3345 0.822788 33.9725 1.5103 33.6029 2.15006C32.19 4.62536 30.2771 6.78093 27.9855 8.48024C26.3164 9.7001 24.1943 11.2211 24.4799 13.4702C24.6305 14.213 24.9056 14.9251 25.2935 15.5766C26.8333 18.6775 31.0352 21.0739 30.6219 24.6123C32.1517 22.0573 30.1054 20.7939 31.6353 18.2389C32.3638 17.0221 33.6294 15.6487 34.7294 16.4128C35.0977 16.6686 35.3395 17.1275 35.723 17.352C36.638 17.8877 37.6115 16.8636 38.4215 16.1382C41.2145 13.6369 45.1864 14.2922 48.6621 15.0716C50.3029 15.4395 52.1052 15.9222 53.0752 17.4867C54.3505 19.5437 51.8635 21.7653 51.2351 24.0909C51.1838 24.2891 51.1814 24.4967 51.2281 24.696C51.2747 24.8953 51.3691 25.0804 51.5031 25.2354C51.637 25.3904 51.8067 25.5107 51.9974 25.586C52.1882 25.6614 52.3944 25.6895 52.5984 25.668C53.6413 25.5654 54.8767 25.4813 54.9384 25.0247C56.2505 25.0713 57.8582 24.9231 58.4204 23.5601C58.5922 23.0208 58.6831 22.4591 58.6899 21.8933C58.8963 19.6037 59.8703 17.515 60.5156 15.3359C61.1609 13.1568 61.4415 10.603 60.3525 8.67097C59.9639 8.02815 59.4832 7.44539 58.9258 6.94112C52.7461 0.975082 44.6212 -0.00879408 36.8397 6.17532e-05Z" fill="#2F2E41"/>
<path d="M31.9658 29.0815C31.9658 29.0815 33.3098 40.2545 28.3819 41.1483C23.454 42.0422 32.8618 57.2375 32.8618 57.2375L55.2612 59.919L49.8854 42.0422C49.8854 42.0422 46.3015 40.7014 48.5414 31.763C50.7814 22.8246 31.9658 29.0815 31.9658 29.0815Z" fill="#FFB8B8"/>
<path d="M18.3018 221.034L20.0939 245.615H29.5013L26.8137 221.034H18.3018Z" fill="#FFB8B8"/>
<path d="M87.2925 174.554L88.6363 195.113L98.9404 190.644L94.9082 173.661L87.2925 174.554Z" fill="#FFB8B8"/>
<path d="M11.5823 127.181C11.5823 127.181 12.0303 153.102 14.7182 161.594C17.4062 170.085 16.9582 170.532 16.5102 171.873C16.0622 173.214 15.6142 172.32 15.6142 174.554C15.6142 176.789 14.7182 212.096 15.6142 215.224C16.5102 218.353 12.9263 223.716 15.6142 224.163C18.3021 224.609 30.8458 224.163 31.2938 221.481C31.7418 218.8 27.7099 217.906 29.5019 216.118C31.2938 214.33 33.9818 177.683 33.9818 177.683L40.2536 152.208L51.9013 138.801H76.5408L84.1566 168.297C84.1566 168.297 81.0206 176.789 83.2606 176.789C85.5006 176.789 98.9402 179.47 98.9402 169.638C98.9402 159.806 94.4604 130.756 93.5644 129.862C92.6684 128.968 94.0124 125.84 92.6684 124.499C91.3244 123.158 75.6448 113.773 69.8209 111.985C63.9971 110.198 55.8272 108.07 55.8272 108.07L11.5823 127.181Z" fill="#2F2E41"/>
<path d="M98.9401 187.068C98.9401 187.068 92.2203 184.834 89.0844 191.537C85.9484 198.241 87.2924 200.029 87.2924 200.029C87.2924 200.029 97.5962 203.604 99.3881 201.817C100.168 201.039 102.643 200.769 105.192 200.712C109.073 200.625 110.106 195.147 106.44 193.871C106.331 193.833 106.22 193.8 106.108 193.772C102.524 192.878 98.9401 187.068 98.9401 187.068Z" fill="#2F2E41"/>
<path d="M42.0456 36.4557C49.4682 36.4557 55.4853 30.4529 55.4853 23.048C55.4853 15.6432 49.4682 9.64038 42.0456 9.64038C34.6231 9.64038 28.606 15.6432 28.606 23.048C28.606 30.4529 34.6231 36.4557 42.0456 36.4557Z" fill="#FFB8B8"/>
<path d="M24.574 46.7348C24.574 46.7348 46.5255 51.2041 51.9014 44.0533C57.2773 36.9026 59.5172 64.1648 59.5172 64.1648L62.2052 92.7677L58.1732 108.41C58.1732 108.41 37.1177 125.393 30.3979 126.734C23.678 128.075 13.3743 128.968 13.3743 128.968C13.3743 128.968 16.5102 79.3601 16.5102 78.4663C16.5102 77.5724 24.574 46.7348 24.574 46.7348Z" fill="#4F3DFE"/>
<path d="M31.2496 38.353C31.2496 38.353 26.3656 35.5618 25.0216 38.2433C23.6776 40.9249 11.1339 47.6287 9.78996 47.6287C8.44599 47.6287 12.4779 84.7232 10.6859 89.1924C8.89398 93.6616 0.382176 126.287 5.31006 128.968C10.238 131.65 6.65403 126.287 11.5819 132.991C16.5098 139.694 40.7012 139.694 42.0452 137.013C43.3892 134.331 31.2935 114.22 33.5334 95.4493C35.7734 76.6786 39.3573 50.7571 36.2214 47.1818C33.0854 43.6064 31.2496 38.353 31.2496 38.353Z" fill="#2F2E41"/>
<path d="M47.4214 41.3718L48.0454 39.2295C48.0454 39.2295 66.6849 45.3941 67.5809 49.4164C68.4769 53.4387 68.0289 81.5947 64.893 83.8293C61.7571 86.0639 57.2772 89.6393 60.4131 95.0024C63.549 100.365 67.1329 106.175 69.8209 106.622C72.5088 107.069 77.4367 110.198 76.0927 113.326C74.7488 116.455 58.6211 110.645 58.6211 110.645C58.6211 110.645 47.8694 102.6 48.3174 90.0862C48.7654 77.5724 47.4214 41.3718 47.4214 41.3718Z" fill="#2F2E41"/>
<path d="M63.101 94.1085L52.3492 114.22C52.3492 114.22 36.6696 130.309 45.6294 132.097C54.5892 133.884 59.5171 117.348 59.5171 117.348L71.1648 100.812L63.101 94.1085Z" fill="#FFB8B8"/>
<path d="M37.4945 3.50814C36.9528 3.46809 36.4101 3.57309 35.9227 3.81226C35.482 4.13337 35.1188 4.54864 34.8596 5.02774C33.6647 6.82087 32.1071 8.34486 30.2868 9.50186C28.928 10.3641 27.2006 11.4391 27.4331 13.0287C27.5593 13.5617 27.7838 14.0666 28.0954 14.5175C29.3531 16.7314 29.8539 19.2937 29.5217 21.8168L33.2578 16.3992C33.8509 15.5392 34.8812 14.5685 35.7766 15.1086C36.0764 15.2894 36.2733 15.6137 36.5854 15.7724C37.3303 16.151 38.1227 15.4272 38.7821 14.9145C41.0557 13.1466 44.2891 13.6097 47.1184 14.1606C48.4541 14.4206 49.9212 14.7618 50.7108 15.8676C52.023 17.7052 50.6528 20.3604 51.4186 22.4833C51.633 22.3335 51.8151 22.1424 51.954 21.9212C52.093 21.6999 52.186 21.4531 52.2275 21.1954C53.2957 21.2283 54.6044 21.1236 55.0621 20.1602C55.2013 19.7826 55.2754 19.3843 55.2815 18.9821C55.4494 17.3639 56.2423 15.8876 56.7676 14.3474C57.2929 12.8072 57.5213 11.0022 56.6349 9.63667C56.3106 9.17399 55.9192 8.76194 55.4735 8.41402C50.443 4.19727 43.8289 3.50188 37.4945 3.50814Z" fill="#2F2E41"/>
<path d="M63.101 47.6287L67.275 48.734C67.275 48.734 76.9887 73.5501 74.7487 90.5331C72.5088 107.516 71.1648 103.941 71.1648 103.941C71.1648 103.941 67.5809 95.8962 59.5171 97.6839L63.101 47.6287Z" fill="#2F2E41"/>
<path d="M18.9225 242.366C17.8422 243.831 18.0588 245.924 17.1018 247.472C16.2723 248.813 14.7091 249.517 13.6715 250.705C13.3405 251.1 13.0453 251.524 12.7896 251.971C11.8271 253.579 11.0448 255.641 11.9927 257.258C12.7553 258.558 14.3581 259.067 15.828 259.413C17.6859 259.851 19.6164 260.202 21.4957 259.867C23.3751 259.532 25.2119 258.384 25.882 256.601C26.0137 256.152 26.1702 255.712 26.3509 255.281C27.3696 253.28 30.5647 253.258 31.6072 251.27C32.3368 249.879 31.6661 248.197 30.9958 246.776L28.9483 242.436C28.2688 240.996 25.5144 241.824 24.0784 241.479C22.2056 241.029 20.2698 240.533 18.9225 242.366Z" fill="#2F2E41"/>
<path d="M3.96655 103.047L22.7821 132.097C22.7821 132.097 34.4298 146.845 38.0138 140.141C41.5977 133.438 25.4701 122.265 25.4701 122.265L13.3743 99.9185L3.96655 103.047Z" fill="#FFB8B8"/>
<path d="M13.3741 48.5225L9.79018 47.6287C9.79018 47.6287 2.62234 49.8633 0.830385 59.2486C-0.961571 68.634 0.382394 106.175 2.62234 106.622C4.86229 107.069 13.6854 100.086 15.0977 101.566C16.51 103.047 12.0301 95.4493 13.3741 91.427C14.718 87.4047 13.3741 48.5225 13.3741 48.5225Z" fill="#2F2E41"/>
<path d="M181.805 68.4717H170.226V71.2525H181.805V68.4717Z" fill="#4F3DFE"/>
<path d="M221.902 68.4717H217.828V71.2525H221.902V68.4717Z" fill="#4F3DFE"/>
<path d="M230.05 68.4717H225.976V71.2525H230.05V68.4717Z" fill="#4F3DFE"/>
<path d="M213.539 68.4717H185.879V71.2525H213.539V68.4717Z" fill="#4F3DFE"/>
<path d="M167.224 86.4402H155.646V89.221H167.224V86.4402Z" fill="#4F3DFE"/>
<path d="M207.321 86.4402H203.247V89.221H207.321V86.4402Z" fill="#4F3DFE"/>
<path d="M215.469 86.4402H211.395V89.221H215.469V86.4402Z" fill="#4F3DFE"/>
<path d="M198.959 86.4402H171.298V89.221H198.959V86.4402Z" fill="#4F3DFE"/>
<path d="M215.04 74.6751H203.462V77.4559H215.04V74.6751Z" fill="#4F3DFE"/>
<path d="M230.693 74.6751H219.114V77.4559H230.693V74.6751Z" fill="#4F3DFE"/>
<path d="M159.72 74.6751H155.646V77.4559H159.72V74.6751Z" fill="#4F3DFE"/>
<path d="M167.868 74.6751H163.794V77.4559H167.868V74.6751Z" fill="#4F3DFE"/>
<path d="M199.602 74.6751H171.941V77.4559H199.602V74.6751Z" fill="#4F3DFE"/>
<path d="M191.025 80.6646H179.447V83.4454H191.025V80.6646Z" fill="#4F3DFE"/>
<path d="M175.372 80.6646H163.794V83.4454H175.372V80.6646Z" fill="#4F3DFE"/>
<path d="M159.719 80.6646H155.646V83.4454H159.719V80.6646Z" fill="#4F3DFE"/>
<path d="M230.693 80.6646H226.619V83.4454H230.693V80.6646Z" fill="#4F3DFE"/>
<path d="M222.545 80.6646H194.885V83.4454H222.545V80.6646Z" fill="#4F3DFE"/>
</g>
<defs>
<clipPath id="clip0">
<rect width="276.774" height="260" fill="white"/>
</clipPath>
</defs>
</svg>
