<?xml version="1.0" standalone="no"?>
<!DOCTYPE svg PUBLIC "-//W3C//DTD SVG 20010904//EN"
 "http://www.w3.org/TR/2001/REC-SVG-20010904/DTD/svg10.dtd">
<svg version="1.0" xmlns="http://www.w3.org/2000/svg"
 width="300.000000pt" height="300.000000pt" viewBox="0 0 300.000000 300.000000"
 preserveAspectRatio="xMidYMid meet">
<metadata>
Created by potrace 1.14, written by Peter Selinger 2001-2017
</metadata>
<g transform="translate(0.000000,300.000000) scale(0.100000,-0.100000)"
fill="#000000" stroke="none">
<path d="M910 2085 l-355 -355 358 -358 358 -357 234 240 234 240 115 -115
116 -115 -237 -237 -238 -238 123 -122 122 -123 357 358 358 357 -357 357
-358 358 -235 -235 -235 -235 -115 115 -115 115 235 235 235 235 -118 118
c-64 64 -120 117 -122 117 -3 0 -165 -160 -360 -355z"/>
</g>
</svg>
