<svg width="16" height="16" viewBox="0 0 16 16" fill="none" xmlns="http://www.w3.org/2000/svg">
<g clip-path="url(#clip0)">
<path d="M11.3333 1.33356H4.66667C2.82572 1.33356 1.33333 2.82594 1.33333 4.66689V11.3336C1.33333 13.1745 2.82572 14.6669 4.66667 14.6669H11.3333C13.1743 14.6669 14.6667 13.1745 14.6667 11.3336V4.66689C14.6667 2.82594 13.1743 1.33356 11.3333 1.33356Z" stroke="#0B0A1F" stroke-width="1.5" stroke-linecap="round" stroke-linejoin="round"/>
<path d="M10.6667 7.58026C10.7489 8.13509 10.6542 8.70174 10.3958 9.19961C10.1375 9.69747 9.72876 10.1012 9.22775 10.3534C8.72673 10.6056 8.15896 10.6933 7.60519 10.6042C7.05141 10.5151 6.53984 10.2537 6.14322 9.85704C5.74661 9.46042 5.48515 8.94885 5.39604 8.39507C5.30693 7.8413 5.39471 7.27352 5.64688 6.77251C5.89906 6.2715 6.30279 5.86276 6.80065 5.60442C7.29852 5.34609 7.86517 5.25132 8.42 5.3336C8.98595 5.41752 9.5099 5.68124 9.91446 6.0858C10.319 6.49036 10.5827 7.01431 10.6667 7.58026Z" stroke="#0B0A1F" stroke-width="1.5" stroke-linecap="round" stroke-linejoin="round"/>
<path d="M11.6667 4.33356H11.6729" stroke="#0B0A1F" stroke-width="1.5" stroke-linecap="round" stroke-linejoin="round"/>
</g>
<defs>
<clipPath id="clip0">
<rect width="16" height="16" fill="white" transform="translate(0 0.000244141)"/>
</clipPath>
</defs>
</svg>
