<svg width="18" height="18" viewBox="0 0 18 18" fill="none" xmlns="http://www.w3.org/2000/svg">
<g clip-path="url(#clip0)">
<path d="M12 16.5003V13.5978C12.0281 13.2401 11.9798 12.8806 11.8583 12.5431C11.7367 12.2056 11.5447 11.8978 11.295 11.6403C13.65 11.3778 16.125 10.4853 16.125 6.39026C16.1248 5.34313 15.722 4.33616 15 3.57776C15.3419 2.66164 15.3177 1.64902 14.9325 0.750258C14.9325 0.750258 14.0475 0.487758 12 1.86026C10.281 1.39437 8.46899 1.39437 6.75 1.86026C4.7025 0.487758 3.8175 0.750258 3.8175 0.750258C3.43228 1.64902 3.40811 2.66164 3.75 3.57776C3.0226 4.34178 2.61939 5.35786 2.625 6.41276C2.625 10.4778 5.1 11.3703 7.455 11.6628C7.20825 11.9177 7.01795 12.2218 6.89648 12.5552C6.77502 12.8886 6.72511 13.2438 6.75 13.5978V16.5003M6.75 14.2503C3 15.3753 3 12.3753 1.5 12.0003L6.75 14.2503Z" stroke="#0B0A1F" stroke-width="1.5" stroke-linecap="round" stroke-linejoin="round"/>
</g>
<defs>
<clipPath id="clip0">
<rect width="18" height="18" fill="white" transform="translate(0 0.000244141)"/>
</clipPath>
</defs>
</svg>
