<svg width="18" height="18" viewBox="0 0 18 18" fill="none" xmlns="http://www.w3.org/2000/svg">
<path d="M7.61783 8.11367C7.92939 7.62873 8.10729 7.05018 8.097 6.4299C8.06944 4.77004 6.68808 3.45099 5.02795 3.45099H0.393104C0.176018 3.45099 0 3.62701 0 3.84409V14.0367C0 14.2537 0.176018 14.4298 0.393104 14.4298H5.57041C7.49199 14.4298 9.08377 12.8896 9.09162 10.968C9.09645 9.79037 8.51245 8.74628 7.61783 8.11367ZM2.03333 5.48432H5.06752C5.61701 5.48432 6.0641 5.93137 6.0641 6.4809C6.0641 7.03039 5.61705 7.47748 5.06752 7.47748H2.03333V5.48432ZM5.61556 12.3964H2.03333V9.51081H5.06752H5.61552C6.41107 9.51081 7.05833 10.1581 7.05833 10.9536C7.05833 11.7492 6.41111 12.3964 5.61556 12.3964Z" fill="#0B0A1F"/>
<path d="M18 10.2453C18 7.87191 16.1294 5.9411 13.8301 5.9411C11.5308 5.9411 9.66022 7.87195 9.66022 10.2453C9.66022 12.6186 11.5308 14.5495 13.8301 14.5495C15.2253 14.5495 16.5217 13.8342 17.298 12.6362C17.3948 12.4868 17.4827 12.3308 17.5607 12.1699C17.6173 12.0531 17.5314 11.9173 17.4016 11.9169L15.3518 11.9118C15.3065 11.9117 15.2635 11.9303 15.231 11.9619C14.8439 12.3382 14.3694 12.5161 13.8301 12.5161C12.8114 12.5161 11.9575 11.7542 11.7449 10.7385H17.5919C17.8173 10.7385 18 10.5558 18 10.3304V10.2453ZM13.8301 7.97443C14.5762 7.97443 15.2338 8.38328 15.616 9.00097H12.0442C12.4264 8.38328 13.0841 7.97443 13.8301 7.97443Z" fill="#0B0A1F"/>
<path d="M15.5628 5.43581H11.8643C11.6918 5.43581 11.5519 5.29591 11.5519 5.12335V4.19551C11.5519 4.02295 11.6918 3.88306 11.8643 3.88306H15.5628C15.7354 3.88306 15.8753 4.02295 15.8753 4.19551V5.12335C15.8753 5.29595 15.7354 5.43581 15.5628 5.43581Z" fill="#0B0A1F"/>
</svg>
