<svg width="18" height="18" viewBox="0 0 18 18" fill="none" xmlns="http://www.w3.org/2000/svg">
<g clip-path="url(#clip0)">
<path d="M16.2 0.000244141H1.8C0.81 0.000244141 0 0.810244 0 1.80024V16.2002C0 17.1902 0.81 18.0002 1.8 18.0002H16.2C17.19 18.0002 18 17.1902 18 16.2002V1.80024C18 0.810244 17.19 0.000244141 16.2 0.000244141ZM5.4 15.3002H2.7V7.20024H5.4V15.3002ZM4.05 5.67024C3.15 5.67024 2.43 4.95024 2.43 4.05024C2.43 3.15024 3.15 2.43024 4.05 2.43024C4.95 2.43024 5.67 3.15024 5.67 4.05024C5.67 4.95024 4.95 5.67024 4.05 5.67024ZM15.3 15.3002H12.6V10.5302C12.6 9.81028 11.97 9.18024 11.25 9.18024C10.53 9.18024 9.9 9.81028 9.9 10.5302V15.3002H7.2V7.20024H9.9V8.28024C10.35 7.56024 11.34 7.02024 12.15 7.02024C13.86 7.02024 15.3 8.46024 15.3 10.1702V15.3002Z" fill="#0B0A1F"/>
</g>
<defs>
<clipPath id="clip0">
<rect width="18" height="18" fill="white" transform="translate(0 0.000244141)"/>
</clipPath>
</defs>
</svg>
