<svg width="40" height="40" viewBox="0 0 40 40" fill="none" xmlns="http://www.w3.org/2000/svg">
<path d="M28.961 0H11.0383C4.95176 0 0 4.952 0 11.0385V28.9613C0 35.048 4.95176 39.9998 11.0383 39.9998H28.961C35.048 39.9998 39.9998 35.0478 39.9998 28.9613V11.0385C40 4.952 35.048 0 28.961 0ZM36.451 28.9613C36.451 33.0911 33.0911 36.4508 28.9613 36.4508H11.0383C6.90867 36.451 3.54897 33.0911 3.54897 28.9613V11.0385C3.54897 6.9089 6.90867 3.54897 11.0383 3.54897H28.961C33.0909 3.54897 36.4508 6.9089 36.4508 11.0385V28.9613H36.451Z" fill="white"/>
<path d="M19.9998 9.69342C14.3165 9.69342 9.69287 14.317 9.69287 20.0003C9.69287 25.6834 14.3165 30.3068 19.9998 30.3068C25.6831 30.3068 30.3067 25.6834 30.3067 20.0003C30.3067 14.317 25.6831 9.69342 19.9998 9.69342ZM19.9998 26.7576C16.2736 26.7576 13.2418 23.7263 13.2418 20.0001C13.2418 16.2737 16.2734 13.2422 19.9998 13.2422C23.7262 13.2422 26.7578 16.2737 26.7578 20.0001C26.7578 23.7263 23.726 26.7576 19.9998 26.7576Z" fill="white"/>
<path d="M30.7392 6.68414C30.0554 6.68414 29.3837 6.96096 28.9008 7.44599C28.4155 7.92865 28.1366 8.60059 28.1366 9.28672C28.1366 9.97073 28.4158 10.6424 28.9008 11.1275C29.3835 11.6101 30.0554 11.8893 30.7392 11.8893C31.4253 11.8893 32.0949 11.6101 32.5799 11.1275C33.0649 10.6424 33.3417 9.97049 33.3417 9.28672C33.3417 8.60059 33.0649 7.92865 32.5799 7.44599C32.0972 6.96096 31.4253 6.68414 30.7392 6.68414Z" fill="white"/>
</svg>
